<?xml version="1.0" standalone="no"?>
<!DOCTYPE svg PUBLIC "-//W3C//DTD SVG 20010904//EN"
 "http://www.w3.org/TR/2001/REC-SVG-20010904/DTD/svg10.dtd">
<svg version="1.0" xmlns="http://www.w3.org/2000/svg"
 width="1000.000000pt" height="1000.000000pt" viewBox="0 0 1000.000000 1000.000000"
 preserveAspectRatio="xMidYMid meet">
<metadata>
Created by potrace 1.14, written by Peter Selinger 2001-2017
</metadata>
<g transform="translate(0.000000,1000.000000) scale(0.100000,-0.100000)"
fill="#000000" stroke="none">
<path d="M413 9986 c-145 -35 -286 -147 -350 -276 -64 -130 -64 -118 -61
-1220 l3 -995 50 -11 c66 -15 272 -76 415 -123 299 -99 541 -193 865 -339 539
-242 1152 -592 1502 -858 205 -156 513 -429 513 -455 0 -23 -352 6 -575 47
-501 92 -1109 284 -1720 546 -167 71 -549 259 -727 357 -174 95 -317 171 -323
171 -3 0 -5 -338 -5 -751 l0 -752 122 7 c68 4 202 11 298 16 374 20 1083 0
1388 -40 l72 -10 293 197 c160 108 302 205 315 216 12 11 22 17 22 12 0 -7
-119 -228 -385 -715 -62 -113 -148 -270 -191 -350 -43 -79 -82 -151 -85 -160
-8 -18 28 -27 461 -111 58 -11 159 -31 225 -44 230 -45 534 -105 643 -127 34
-7 62 -16 62 -21 0 -5 -64 -93 -143 -195 -78 -103 -167 -220 -197 -259 l-54
-72 -32 63 c-93 189 -254 335 -461 417 -244 97 -526 70 -766 -72 -93 -55 -228
-192 -285 -288 -45 -76 -94 -198 -106 -263 l-7 -36 -93 62 c-118 79 -251 138
-392 173 -97 24 -128 27 -274 27 -168 0 -283 -18 -392 -61 l-38 -15 0 -1592
c0 -1357 2 -1601 15 -1661 42 -201 191 -358 391 -410 51 -13 584 -15 4594 -15
4041 0 4542 2 4595 15 182 48 339 205 380 381 12 51 15 423 19 2380 l4 2320
-201 115 c-261 148 -260 147 -166 138 41 -4 138 -10 217 -14 l142 -8 0 596 0
596 -107 -45 c-60 -25 -142 -61 -183 -81 -285 -135 -664 -287 -1050 -422
l-115 -40 -80 46 c-72 41 -366 209 -584 334 -46 26 -88 52 -93 57 -7 7 70 50
219 124 206 103 266 131 413 196 447 197 1036 396 1460 493 52 11 101 23 108
25 16 5 18 2289 1 2379 -26 140 -141 290 -270 354 -132 64 -85 61 -1183 59
l-998 -3 -34 -125 c-142 -521 -339 -1025 -615 -1580 -370 -741 -748 -1299
-1106 -1634 l-53 -49 0 74 c0 208 79 685 160 969 10 36 33 115 50 175 72 251
218 668 325 925 107 260 305 675 411 862 54 95 204 377 204 383 0 3 -343 5
-762 5 l-761 0 7 -122 c54 -990 12 -1761 -130 -2398 -53 -238 -202 -698 -230
-707 -11 -4 -19 14 -85 202 -84 235 -184 675 -214 935 -3 30 -12 100 -20 155
-8 55 -24 210 -37 345 -20 217 -23 303 -23 755 0 355 4 558 14 668 8 86 12
160 9 162 -3 3 -275 4 -605 3 l-600 -3 34 -80 c67 -158 87 -202 140 -313 185
-393 425 -1044 542 -1472 122 -445 183 -800 202 -1177 11 -198 7 -304 -9 -302
-25 2 -274 315 -400 502 -482 715 -928 1750 -1152 2670 l-43 177 -1141 -1
c-884 -1 -1153 -4 -1193 -13z m136 -430 c425 -212 813 -485 1281 -900 161
-144 695 -674 841 -836 332 -369 604 -730 802 -1066 57 -96 233 -446 250 -496
9 -25 -1 -23 -101 21 -606 267 -1265 771 -2028 1551 -516 528 -944 1110 -1210
1644 -46 93 -84 175 -84 182 0 16 80 -16 249 -100z m9090 -8 c-255 -573 -702
-1172 -1383 -1854 -573 -573 -1029 -940 -1511 -1219 -169 -97 -471 -243 -481
-232 -15 15 167 368 281 547 359 561 721 1008 1191 1470 538 528 1067 946
1520 1200 154 87 414 211 426 204 4 -3 -16 -55 -43 -116z m-4359 -2868 c507
-86 952 -393 1207 -832 l45 -77 206 172 c114 95 319 265 455 380 137 114 252
207 256 207 10 0 102 -107 393 -455 124 -148 289 -345 367 -437 l141 -167 -39
-11 c-22 -6 -52 -17 -68 -25 -15 -8 -33 -15 -39 -15 -6 0 -136 -45 -289 -100
-153 -55 -283 -100 -289 -100 -6 0 -24 -7 -39 -15 -16 -8 -47 -20 -70 -26 -23
-6 -55 -17 -72 -24 -16 -7 -136 -50 -265 -95 -377 -132 -460 -163 -460 -170 0
-5 269 -94 955 -317 160 -52 306 -101 325 -108 56 -21 534 -175 543 -175 5 0
23 -6 40 -14 18 -8 64 -24 104 -36 40 -11 75 -24 78 -29 2 -5 -32 -19 -78 -31
-45 -12 -109 -30 -142 -40 -59 -18 -155 -47 -305 -90 -82 -23 -209 -61 -310
-91 -113 -33 -342 -100 -410 -119 -36 -9 -121 -34 -190 -55 -127 -38 -309 -91
-502 -146 l-107 -31 -428 217 c-235 120 -513 261 -618 315 -104 53 -370 188
-590 300 -220 111 -503 255 -630 320 -126 65 -414 211 -640 326 -225 114 -432
220 -460 234 -59 31 -60 34 -13 180 79 249 231 499 417 687 297 300 665 470
1116 517 78 8 291 -5 405 -24z"/>
<path d="M0 4641 c0 -336 3 -611 7 -611 3 0 14 6 22 14 9 7 142 98 296 201
879 591 817 546 778 558 -10 3 -74 29 -143 57 -69 29 -150 63 -180 75 -30 12
-111 46 -180 75 -69 28 -142 58 -163 65 -20 8 -52 21 -70 29 -48 22 -318 132
-344 140 l-23 7 0 -610z"/>
</g>
</svg>
